{"title":"Joyride 1997 DVDRip Xvid BigPerm LKRG","uid":6398030,"size":776566723,"categoryP":"video","categoryS":"movies","magnet":"?xt=urn:btih:9ec8effac5d8862761a40f9aa36366ae11249102&amp;dn=Joyride+1997+DVDRip+Xvid+BigPerm+LKRG&amp;tr=udp%3A%2F%2Ftracker.openbittorrent.com%3A80&amp;tr=udp%3A%2F%2Fopen.demonii.com%3A1337&amp;tr=udp%3A%2F%2Ftracker.coppersurfer.tk%3A6969&amp;tr=udp%3A%2F%2Fexodus.desync.com%3A6969","seeders":0,"leechers":6,"uploader":".BONE.","files":53,"time":1305578444,"description":"\nPLOT\nTo a dumpy motel in an out-of-the-way little town, a mysterious woman, calling herself only Ms. Smith, comes to\nstay. Not only is she stunningly lovely, but her big black convertible is a beaut. J.T., the just-out-of-high-school\nson of the motel's owner, is taken by the car, and in an attempt to liven up his dull life, and possibly to impress\nTanya, a hotel guest who flirts with him and wants to be a model,\n &lt;a href=&quot;\nhttp://www.imdb.com/title/tt0119426/&quot; rel=&quot;nofollow&quot; target=&quot;_NEW&quot;&gt;\nhttp://www.imdb.com/title/tt0119426/&lt;/a&gt;\n\nEncoded By .......: BigPerm1828\nRuntime ..........: 1h 32\nFile Size ........: 744 MiB\nResolution .......: 704x396\nIMDb URL .........: http://www.imdb.com/title/tt0119426/\nLanguage .........: English\nVideo\nID : 0\nFormat : MPEG-4 Visual\nFormat profile : Advanced Simple@L5\nFormat settings, BVOP : Yes\nFormat settings, QPel : No\nFormat settings, GMC : No warppoints\nFormat settings, Matrix : Default (H.263)\nCodec ID : XVID\nCodec ID/Hint : XviD\nDuration : 1h 32mn\nBit rate : 933 Kbps\nWidth : 704 pixels\nHeight : 396 pixels\nDisplay aspect ratio : 16:9\nFrame rate : 23.976 fps\nColor space : YUV\nChroma subsampling : 4:2:0\nBit depth : 8 bits\nScan type : Progressive\nCompression mode : Lossy\nBits/(Pixel*Frame) : 0.140\nStream size : 614 MiB (83%)\nWriting library : XviD 1.2.1 (UTC 2008-12-04)\nAudio\nID : 1\nFormat : AC-3\nFormat/Info : Audio Coding 3\nMode extension : CM (complete main)\nCodec ID : 2000\nDuration : 1h 32mn\nBit rate mode : Constant\nBit rate : 192 Kbps\nChannel(s) : 2 channels\nChannel positions : Front: L R\nSampling rate : 48.0 KHz\nBit depth : 16 bits\nCompression mode : Lossy\nVideo delay : 42ms\nStream size : 126 MiB (17%)\nAlignment : Split accross interleaves\nInterleave, duration : 500 ms (11.99 video frames)\nInterleave, preload duration : 500 ms\n &lt;a href=&quot;\nhttp://leetleech.org/images/16690581307624250885.png&quot; rel=&quot;nofollow&quot; target=&quot;_NEW&quot;&gt;\nhttp://leetleech.org/images/16690581307624250885.png&lt;/a&gt;\n &lt;a href=&quot;\nhttp://leetleech.org/images/73196285511927413782.png&quot; rel=&quot;nofollow&quot; target=&quot;_NEW&quot;&gt;\nhttp://leetleech.org/images/73196285511927413782.png&lt;/a&gt;\n &lt;a href=&quot;\nhttp://leetleech.org/images/58941983005158455993.png&quot; rel=&quot;nofollow&quot; target=&quot;_NEW&quot;&gt;\nhttp://leetleech.org/images/58941983005158455993.png&lt;/a&gt;\n &lt;a href=&quot;\nhttp://leetleech.org/images/72567730378292254182.png&quot; rel=&quot;nofollow&quot; target=&quot;_NEW&quot;&gt;\nhttp://leetleech.org/images/72567730378292254182.png&lt;/a&gt;\n &lt;a href=&quot;\nhttp://leetleech.org/images/46378733004035192631.png&quot; rel=&quot;nofollow&quot; target=&quot;_NEW&quot;&gt;\nhttp://leetleech.org/images/46378733004035192631.png&lt;/a&gt;","torrent":{"xt":"urn:btih:9ec8effac5d8862761a40f9aa36366ae11249102","amp;dn":"Joyride+1997+DVDRip+Xvid+BigPerm+LKRG","amp;tr":["udp%3A%2F%2Ftracker.openbittorrent.com%3A80","udp%3A%2F%2Fopen.demonii.com%3A1337","udp%3A%2F%2Ftracker.coppersurfer.tk%3A6969","udp%3A%2F%2Fexodus.desync.com%3A6969"],"infoHash":"9ec8effac5d8862761a40f9aa36366ae11249102","infoHashBuffer":{"type":"Buffer","data":[158,200,239,250,197,216,134,39,97,164,15,154,163,99,102,174,17,36,145,2]},"announce":[],"urlList":[]}}